<?xml version="1.0" encoding="iso-8859-1"?>
<!-- Generator: Adobe Illustrator 16.0.3, SVG Export Plug-In . SVG Version: 6.00 Build 0)  -->
<!DOCTYPE svg PUBLIC "-//W3C//DTD SVG 1.1 Tiny//EN" "http://www.w3.org/Graphics/SVG/1.1/DTD/svg11-tiny.dtd">
<svg version="1.1" baseProfile="tiny" id="Layer_1" xmlns="http://www.w3.org/2000/svg" xmlns:xlink="http://www.w3.org/1999/xlink"
	 x="0px" y="0px" width="682.691px" height="157.147px" viewBox="0 0 682.691 157.147" overflow="scroll" xml:space="preserve">
<g>
	<path d="M224.461,55.667h-28.119v98.442h-42.125V3.208h113.539c-2.352,2.357-1.5,5.749-4.695,10.348
		c-4.182,5.553-8.275,2.957-11.668,7.045c-3.113,3.783-1.756,7.74-4.699,11.65c-4.168,5.588-10.582,3.531-15.176,9.416
		C227.775,46.371,227.99,50.964,224.461,55.667"/>
</g>
<path d="M94.809,3.208c-2.35,2.352-1.699,6.249-4.9,10.838c-4.166,5.559-8.254,2.967-11.645,7.055
	c-3.117,3.768-1.766,7.721-4.688,11.635c-4.174,5.568-10.477,3.527-15.166,9.402c-3.746,4.697-3.527,9.281-7.055,13.99h55v49.124
	H60.754c-3.762,0-6.807,0.406-9.398-2.354c-1.975-2.121-2.355-4.15-2.34-7.045L49.18,3.208H0.143L0,109.941
	c-0.027,12.424,8.111,24.566,12.818,29.152c5.854,5.877,17.914,15.016,31.609,15.016h64.17l38.775-44.168V3.208H94.809z"/>
<g>
	<polygon points="361.341,57.357 312.211,57.357 312.211,3.208 271.447,3.208 271.447,154.109 312.211,154.109 312.211,92.698 
		361.341,92.698 361.341,154.109 402.106,154.109 402.106,3.208 361.341,3.208 	"/>
	<path d="M493.366,62.398c-4.612-1.286-9.175-2.384-13.588-3.446c-15.489-3.727-28.865-6.945-28.865-15.211
		c0-8.654,9.188-11.738,17.785-11.738c4.994,0,14.151,0.815,19.363,6.274c2.614,2.738,3.839,6.315,3.639,10.633l-0.047,1.03h40.817
		l-0.006-0.991c-0.099-15.759-6.744-28.686-19.221-37.38C502.539,4.109,487.83,0,471.827,0c-30.701,0-61.68,14.299-61.68,46.245
		c0,27.595,22.398,37.683,44.311,43.915c3.861,1.087,7.71,2.059,11.432,2.998c16.423,4.146,30.606,7.727,30.606,17.745
		c0,10.499-11.773,14.239-22.792,14.239c-18.061,0-26.441-6.851-27.173-22.212l-0.044-0.938h-40.725l0.005,0.991
		c0.187,33.916,24.726,54.165,65.643,54.165c19.8,0,65.852-4.953,65.852-50.833C537.262,78.344,513.805,68.153,493.366,62.398z"/>
	<path d="M641.952,94.274l-0.077,0.901c-1.466,17.173-11.784,26.63-29.053,26.63c-24.802,0-33.638-22.332-33.638-43.232
		s8.836-43.233,33.638-43.233c16.517,0,27.108,8.053,29.059,22.094l0.118,0.85h40.666l-0.029-1.014
		C681.594,21.422,646.745,0,613.656,0c-43.595,0-75.237,33.045-75.237,78.574s31.643,78.574,75.237,78.574
		c39.861,0,66.937-24.271,68.979-61.834l0.057-1.039H641.952z"/>
</g>
</svg>
