<?xml version="1.0" encoding="utf-8"?>
<!-- Generator: Adobe Illustrator 16.0.0, SVG Export Plug-In . SVG Version: 6.00 Build 0)  -->
<!DOCTYPE svg PUBLIC "-//W3C//DTD SVG 1.1//EN" "http://www.w3.org/Graphics/SVG/1.1/DTD/svg11.dtd">
<svg version="1.1" xmlns="http://www.w3.org/2000/svg" xmlns:xlink="http://www.w3.org/1999/xlink" x="0px" y="0px" width="338.5px"
	 height="41px" viewBox="0 0 338.5 41" enable-background="new 0 0 338.5 41" xml:space="preserve">
<g id="Layer_1" display="none">
	<rect display="inline" fill="#215138" width="338.5" height="40.94"/>
</g>
<g id="Layer_3">
	<g>
		<path fill="#F89728" d="M332.654,7.795h-3.281v11.48h-4.916V1.656h13.252c-0.275,0.273-0.176,0.686-0.549,1.223
			c-0.487,0.649-0.965,0.346-1.36,0.823c-0.365,0.44-0.206,0.903-0.549,1.36c-0.488,0.65-1.236,0.411-1.772,1.099
			C333.042,6.709,333.066,7.246,332.654,7.795"/>
		<path fill="#F89728" d="M317.523,1.689c-0.275,0.274-0.199,0.713-0.572,1.249c-0.486,0.647-0.965,0.345-1.358,0.821
			c-0.365,0.44-0.206,0.902-0.549,1.359c-0.487,0.65-1.222,0.411-1.77,1.097c-0.437,0.548-0.412,1.084-0.822,1.632h6.417v5.733
			h-5.32c-0.44,0-0.796,0.048-1.097-0.274c-0.231-0.246-0.275-0.483-0.274-0.821l0.021-10.796h-5.726l-0.017,12.44
			c-0.002,1.449,0.947,2.866,1.496,3.402c0.686,0.686,2.092,1.783,3.689,1.783h7.49l4.512-5.186l0.027-12.44H317.523z"/>
		<path fill="#FFFFFF" d="M158.936,9.061c-2.043,0-2.645,2.764-2.645,4.542c0,1.161,0.268,2.426,1.514,2.426
			c2.136,0,2.738-2.89,2.738-4.705C160.543,10.031,160.238,9.061,158.936,9.061 M162.124,11.76c0,2.423-1.59,5.048-4.319,5.048
			c-2.018,0-3.096-1.474-3.096-3.37c0-2.303,1.563-5.157,4.246-5.157C161.049,8.28,162.124,9.813,162.124,11.76"/>
		<path fill="#FFFFFF" d="M167.053,10.704c0.289,0,0.289-0.144,0.289-0.361c0-0.259,0-0.374-0.289-0.374h-0.966
			c-0.116,0-0.201-0.114-0.201-0.23c0-0.403,0.446-3.013,1.297-3.013c0.691,0,0.967,1.053,1.239,1.053
			c0.303,0,0.347-0.822,0.347-1.066c0-0.246,0.086-0.635-1.212-0.635c-1.341,0-2.508,1.24-2.941,2.609
			c-0.316,0.994-0.215,1.282-0.402,1.282h-1.082c-0.287,0-0.287,0.115-0.287,0.374c0,0.218,0,0.361,0.287,0.361h0.952
			c0.116,0,0.202,0.029,0.188,0.173l-0.692,5.867c-0.145,1.124-0.346,1.282-0.55,1.282c-0.532,0-0.561-1.023-0.964-1.023
			c-0.317,0-0.432,0.837-0.432,1.096c0,0.403,0.245,0.678,0.864,0.678c0.692,0,2.437-0.778,2.768-3.445l0.549-4.339
			c0.014-0.145,0.014-0.288,0.143-0.288H167.053z"/>
		<path fill="#FFFFFF" d="M30.972,3.735c0-1.742,1.62-1.065,1.62-1.742c0-0.29-0.653-0.241-0.773-0.241
			c-0.75,0-1.524,0.096-2.298,0.096c-0.653,0-1.258-0.096-1.887-0.096c-0.121,0-0.532,0.072-0.532,0.241
			c0,0.773,1.959,0.193,1.959,1.621v8.149c0,3.726,1.209,7.28,7.571,7.28c7.038,0,6.748-5.974,6.748-7.159V4.388
			c0-2.226,1.427-1.692,1.427-2.37c0-0.146-0.194-0.266-0.315-0.266c-0.435,0-0.871,0.096-1.33,0.096
			c-0.943,0-1.887-0.096-2.83-0.096c-0.073,0-0.242,0.12-0.242,0.241c0,0.919,2.249-0.097,2.249,2.371V12.2
			c0,2.854-1.039,5.853-5.586,5.853c-3.266,0-5.781-1.766-5.781-5.636V3.735z"/>
		<path fill="#FFFFFF" d="M48.03,15.804c0,3.019-1.896,2.069-1.896,2.823c0,0.109,0.022,0.238,0.28,0.238
			c0.151,0,1.271-0.087,2.026-0.087c1.056,0,1.659,0.087,2.176,0.087c0.216,0,0.238-0.173,0.238-0.281
			c0-0.582-1.897,0.173-1.897-1.767V8.003c0-0.432,0.065-0.496,0.151-0.496c0.151,0,0.409,0.366,0.452,0.409l9.268,10.431
			c0.452,0.496,0.668,0.604,0.819,0.604c0.172,0,0.194-0.302,0.194-0.927V5.546c0-1.574,1.271-1.185,1.271-1.746
			c0-0.129-0.086-0.193-0.215-0.193c-0.518,0-1.445,0.086-2.177,0.086c-0.69,0-1.315-0.086-1.961-0.086
			c-0.13,0-0.237,0.064-0.237,0.215c0,0.712,2.392-0.107,2.392,2.716v9.009c0,0.172-0.022,0.237-0.065,0.237
			s-0.129-0.086-0.258-0.237L48.31,4.103c-0.129-0.151-0.323-0.496-0.56-0.496c-0.323,0-0.668,0.086-0.991,0.086
			c-0.345,0-0.668-0.086-1.013-0.086c-0.108,0-0.324,0.086-0.324,0.215c0,0.798,2.608-0.452,2.608,4.031V15.804z"/>
		<path fill="#FFFFFF" d="M64.798,16.494c0,2.133-1.681,1.422-1.681,2.048c0,0.215,0.064,0.323,0.452,0.323
			c0.302,0,0.754-0.087,2.069-0.087c0.927,0,1.853,0.087,2.349,0.087c0.367,0,0.431-0.065,0.431-0.216
			c0-0.647-1.918-0.151-1.918-1.616V5.46c0-1.617,1.552-1.121,1.552-1.639c0-0.172-0.065-0.215-0.41-0.215
			c-0.667,0-1.336,0.086-2.004,0.086c-0.797,0-1.573-0.086-2.371-0.086c-0.172,0-0.215,0.043-0.215,0.236
			c0,0.475,1.724,0.043,1.746,1.617V16.494z"/>
		<path fill="#FFFFFF" d="M75.658,17.853c0.194,0.451,0.452,1.356,0.797,1.356c0.323,0,0.474-0.711,0.712-1.25l5.366-12.693
			c0.604-1.444,1.208-0.904,1.208-1.38c0-0.193-0.13-0.279-0.368-0.279c-0.301,0-0.625,0.086-1.66,0.086
			c-0.474,0-0.947-0.086-1.421-0.086c-0.215,0-0.324,0.064-0.324,0.279c0,0.496,1.38,0.086,1.38,1.078
			c0.085,0.453-0.174,1.143-0.301,1.465l-3.752,9.246c-0.107,0.259-0.171,0.604-0.387,0.604c-0.237,0-0.388-0.495-0.862-1.638
			l-3.771-8.88c-0.087-0.192-0.195-0.538-0.195-0.84c0-0.775,0.906-0.798,0.884-1.1c0-0.129-0.173-0.215-0.302-0.215
			c-0.301,0-1.12,0.086-1.702,0.086c-0.647,0-1.315-0.086-1.983-0.086c-0.194,0-0.302,0.107-0.302,0.302
			c0,0.474,1.121,0.063,1.66,1.357L75.658,17.853z"/>
		<path fill="#FFFFFF" d="M87.404,5.869c0-1.444-0.043-1.357,2.026-1.357c0.861,0,3.103-0.13,3.664,0.604
			c0.344,0.495,0,1.53,0.516,1.53c0.13,0,0.431-0.173,0.431-2.564c0-0.26-0.042-0.475-0.216-0.475c-0.667,0-2.65,0.086-3.081,0.086
			c-0.905,0-2.025-0.086-6.098-0.086c-0.625,0-0.755,0.086-0.755,0.259c0,0.258,0.475,0.302,0.646,0.345
			c1.164,0.172,1.164,1.207,1.164,2.176v9.828c0,1.012-0.044,1.616-0.604,1.875c-0.689,0.345-0.905,0.302-0.947,0.561
			c0,0.173,0.128,0.216,0.322,0.216c0.863,0,1.768-0.065,2.63-0.087c1.638-0.042,3.275,0.087,4.913,0.087
			c0.949,0,1.423,0.043,2.113-0.733c0.517-0.56,1.077-1.314,1.077-2.091c0-0.043-0.021-0.258-0.172-0.258
			c-0.28,0-1.013,2.219-5.992,2.219c-1.81,0-1.637-0.516-1.637-1.788v-3.966c0-0.323-0.064-0.689,0.387-0.689h3.19
			c1.81,0,1.078,1.896,1.745,1.896c0.152,0,0.238-0.086,0.238-0.28c0-0.582-0.044-1.142-0.044-1.703
			c0-0.688,0.044-1.422,0.044-2.176c0-0.173-0.065-0.409-0.238-0.409c-0.516,0,0.065,1.724-2.176,1.724h-2.328
			c-0.861,0-0.818,0-0.818-0.732V5.869z"/>
		<path fill="#FFFFFF" d="M99.32,5.115c0-0.84,0.454-0.798,1.229-0.798c2.111,0,4.116,0.884,4.116,3.513
			c0,2.673-2.07,3.06-2.996,3.06c-1.013,0-2.349,0.109-2.349-0.301V5.115z M103.565,11.063c1.509-0.604,2.717-2.048,2.717-3.729
			c0-4.159-4.763-3.729-5.108-3.729c-1.12,0-2.349,0.086-3.599,0.086c-1.099,0-0.991-0.086-1.379-0.086
			c-0.26,0-0.431,0.13-0.431,0.259c0,0.732,1.854-0.151,1.854,1.918v10.97c0,1.638-1.574,1.336-1.574,1.874
			c0,0.13,0.086,0.238,0.215,0.238c0.82,0,1.639-0.087,2.456-0.087c1.789,0,2.285,0.087,2.479,0.087
			c0.173,0,0.366,0.043,0.366-0.173c0-0.732-2.241-0.065-2.241-1.918v-4.547c0-0.217-0.129-0.604,0.56-0.604
			c2.414,0,2.091-0.065,2.868,1.142l2.391,3.771c0.819,1.229,1.659,2.328,3.233,2.328c0.194,0,1.401,0,1.401-0.259
			c0-0.518-1.056,0.279-2.609-2.091L103.565,11.063z"/>
		<path fill="#FFFFFF" d="M110.124,17.83c0.086,0.388,2.047,1.186,3.641,1.186c4.893,0,6.164-2.716,6.164-4.525
			c0-5.948-8.749-3.578-8.749-7.63c0-1.982,1.81-2.802,3.513-2.802c1.896,0,3.47,0.948,4.116,2.802
			c0.064,0.194,0.215,0.646,0.453,0.646c0.215,0,0.257-0.15,0.236-0.323l-0.323-2.931c-0.021-0.237-0.128-0.302-0.258-0.302
			c-0.215,0-0.259,0.237-0.453,0.237c-0.301,0-1.012-0.776-3.62-0.776c-2.479,0-4.784,1.315-4.784,4.052
			c0,5.625,8.749,3.297,8.749,7.457c0,2.263-2.005,3.405-4.051,3.405c-2.974,0-4.268-2.241-4.527-3.233
			c-0.107-0.452-0.107-0.711-0.409-0.711c-0.216,0-0.322,0.237-0.237,0.668L110.124,17.83z"/>
		<path fill="#FFFFFF" d="M123.29,16.494c0,2.133-1.68,1.422-1.68,2.048c0,0.215,0.064,0.323,0.453,0.323
			c0.301,0,0.754-0.087,2.067-0.087c0.928,0,1.854,0.087,2.35,0.087c0.367,0,0.432-0.065,0.432-0.216
			c0-0.647-1.919-0.151-1.919-1.616V5.46c0-1.617,1.551-1.121,1.551-1.639c0-0.172-0.064-0.215-0.407-0.215
			c-0.669,0-1.338,0.086-2.007,0.086c-0.796,0-1.572-0.086-2.37-0.086c-0.171,0-0.215,0.043-0.215,0.236
			c0,0.475,1.724,0.043,1.745,1.617V16.494z"/>
		<path fill="#FFFFFF" d="M133.935,16.99c0,1.293-1.701,1.077-1.701,1.594c0,0.216,0.064,0.281,0.259,0.281
			c0.129,0,0.537-0.087,2.951-0.087c0.625,0,1.229,0.087,1.747,0.087c0.215,0,0.193-0.194,0.193-0.259
			c0-0.668-1.746,0.043-1.746-1.768V5.848c0-1.142-0.106-1.056,0.862-1.056h3.082c2.199,0,1.035,1.637,1.831,1.637
			c0.282,0,0.259-0.258,0.238-0.474l-0.108-1.724c-0.021-0.495-0.13-0.625-0.625-0.625c-0.431,0-2.414,0.086-6.314,0.086
			c-2.78,0-4.44-0.086-6.12-0.086c-0.389,0-0.368,0.582-0.389,0.84l-0.236,2.091c0,0.108,0.086,0.259,0.215,0.259
			c0.28,0,0.301-0.281,0.366-0.496c0.389-1.185,0.431-1.508,1.768-1.508h3.512c0.303,0.021,0.215,0.84,0.215,0.991V16.99z"/>
		<path fill="#FFFFFF" d="M147.239,10.718c0.173,0.26,0.497,0.69,0.497,1.1v5.216c0,1.53-1.659,0.969-1.659,1.573
			c0,0.236,0.127,0.259,0.322,0.259c0.194,0,0.97-0.087,1.939-0.087c0.799,0,2.048,0.087,2.371,0.087
			c0.302,0,0.497-0.022,0.497-0.216c0-0.668-1.768-0.065-1.768-1.939v-5.28c0-0.323,0.173-0.431,0.518-0.971l3.016-4.698
			c0.345-0.538,0.625-1.142,1.208-1.485c0.15-0.087,0.516-0.173,0.516-0.41c0-0.108-0.107-0.259-0.236-0.259
			c-0.625,0-1.25,0.086-1.875,0.086c-0.518,0-1.057-0.086-1.574-0.086c-0.238,0-0.453,0.043-0.453,0.322
			c0,0.518,1.617,0.065,1.617,1.121c0,0.582-0.302,0.948-0.453,1.186l-2.22,3.599c-0.171,0.281-0.301,0.432-0.409,0.432
			c-0.13,0-0.259-0.13-0.431-0.388l-2.608-4.16c-0.13-0.192-0.387-0.539-0.387-0.883c0-0.625,1.012-0.646,1.012-1.014
			c0-0.193-0.257-0.215-0.41-0.215c-0.215,0-0.796,0.086-1.509,0.086c-1.465,0-1.874-0.086-2.456-0.086
			c-0.15,0-0.28,0.173-0.28,0.322c0,0.367,1.056,0.108,1.616,1.035L147.239,10.718z"/>
		<path fill="#FFFFFF" d="M4.802,13.32c0,1.313-1.248,0.783-1.248,1.214c0,0.242,0.188,0.231,0.387,0.231
			c0.441,0,0.805-0.045,1.545-0.045c0.739,0,1.104,0.045,1.545,0.045c0.32,0,0.541,0.033,0.541-0.231
			c0-0.31-1.413,0.011-1.413-1.347V8.198c0-0.53,0.11-0.585,0.563-0.585H7.66c1.27-0.044,0.916,1.181,1.358,1.181
			c0.287,0,0.166-0.43,0.143-0.563L9.04,7.216c-0.011-0.11-0.011-0.265-0.177-0.265c-1.026,0-1.766,0.044-3.377,0.044
			c-1.612,0-2.351-0.044-3.378-0.044c-0.165,0-0.165,0.154-0.176,0.265L1.755,8.673C1.733,8.816,1.667,9.059,1.899,9.059
			c0.497,0,0.165-1.445,1.412-1.445h0.928c0.452,0,0.563,0.055,0.563,0.585V13.32z"/>
		<path fill="#FFFFFF" d="M17.227,8.11c0-1.082,0.795-0.607,0.795-1.026c0-0.1-0.044-0.133-0.232-0.133
			c-0.474,0-0.883,0.044-1.457,0.044c-0.684,0-0.971-0.044-1.423-0.044c-0.155,0-0.254-0.022-0.254,0.177
			c0,0.32,1.214-0.078,1.214,1.136v1.558c0,0.242-0.066,0.496-0.387,0.496h-3.278c-0.231,0-0.276-0.144-0.276-0.441V8.121
			c0-0.982,0.85-0.662,0.85-1.005c0-0.11-0.099-0.165-0.254-0.165c-0.32,0-0.761,0.044-1.424,0.044
			c-0.573,0-0.905-0.044-1.236-0.044c-0.21,0-0.541,0.011-0.541,0.177c0,0.419,1.248-0.066,1.248,1.136v4.924
			c0,1.368-0.939,0.971-0.939,1.412c0,0.144,0.111,0.166,0.243,0.166c0.552,0,1.016-0.045,1.479-0.045
			c0.795,0,1.159,0.045,1.612,0.045c0.353,0,0.331-0.089,0.331-0.154c0-0.397-1.369,0-1.369-1.369v-1.733
			c0-0.484,0.034-0.596,0.541-0.596h2.947c0.486,0,0.453,0.122,0.453,0.585v1.987c0,1.07-0.806,0.772-0.806,1.159
			c0,0.076,0.066,0.121,0.221,0.121c0.562,0,0.993-0.045,1.39-0.045c0.453,0,1.104,0.045,1.468,0.045
			c0.144,0,0.232,0.011,0.232-0.133c0-0.431-1.148-0.021-1.148-1.424V8.11z"/>
		<path fill="#FFFFFF" d="M21.519,8.242c0-0.761,0.044-0.773,1.379-0.773c2.131,0,1.27,1.292,1.789,1.292
			c0.254,0,0.198-0.363,0.187-0.508L24.83,7.161c0-0.1-0.077-0.21-0.221-0.21c-0.971,0-1.733,0.044-2.516,0.044
			c-1.689,0-2.484-0.044-2.936-0.044c-0.155,0-0.243,0.088-0.243,0.188c0,0.441,1.247,0.089,1.247,1.081v5.166
			c0,1.347-0.838,0.75-0.838,1.259c0,0.065,0.066,0.121,0.209,0.121c0.607,0,1.071-0.045,1.413-0.045
			c0.552,0,1.214,0.045,2.892,0.045c0.905,0,1.556-0.905,1.556-1.767c0-0.209-0.077-0.242-0.121-0.242
			c-0.42,0-0.265,1.445-3.003,1.445c-0.794,0-0.75-0.397-0.75-1.081v-1.413c0-0.64-0.044-0.771,0.464-0.771h0.816
			c1.148,0,0.839,1.169,1.192,1.169c0.265,0,0.199-0.397,0.188-0.541L24.102,9.6c-0.011-0.298-0.133-0.275-0.21-0.275
			c-0.221,0-0.254,1.016-1.203,1.016h-0.696c-0.474,0-0.474-0.078-0.474-0.553V8.242z"/>
		<path fill="#FFFFFF" d="M174.136,16.737c0,1.454-1.917,1.212-1.917,1.794c0,0.242,0.074,0.314,0.291,0.314
			c0.147,0,0.606-0.097,3.321-0.097c0.705,0,1.384,0.097,1.967,0.097c0.24,0,0.217-0.218,0.217-0.291
			c0-0.751-1.964,0.05-1.964-1.988V4.198c0-1.285-0.121-1.189,0.97-1.189h3.469c2.475,0,1.164,1.845,2.062,1.845
			c0.315,0,0.292-0.292,0.267-0.534l-0.121-1.94c-0.025-0.558-0.146-0.703-0.705-0.703c-0.482,0-2.715,0.097-7.104,0.097
			c-3.128,0-4.996-0.097-6.89-0.097c-0.435,0-0.41,0.654-0.435,0.946l-0.266,2.352c0,0.121,0.096,0.291,0.241,0.291
			c0.314,0,0.34-0.314,0.412-0.558c0.437-1.334,0.485-1.698,1.99-1.698h3.952c0.339,0.025,0.243,0.946,0.243,1.116V16.737z"/>
		<path fill="#FFFFFF" d="M187.503,4.273c0-1.618-0.049-1.521,2.269-1.521c0.966,0,3.478-0.145,4.104,0.676
			c0.387,0.556,0,1.714,0.58,1.714c0.145,0,0.482-0.193,0.482-2.872c0-0.29-0.049-0.532-0.242-0.532
			c-0.746,0-2.968,0.097-3.451,0.097c-1.014,0-2.271-0.097-6.832-0.097c-0.7,0-0.846,0.097-0.846,0.29
			c0,0.29,0.53,0.338,0.725,0.387c1.303,0.193,1.303,1.351,1.303,2.438v11.01c0,1.134-0.047,1.81-0.676,2.1
			c-0.772,0.386-1.014,0.338-1.063,0.628c0,0.193,0.146,0.241,0.362,0.241c0.966,0,1.979-0.072,2.946-0.096
			c1.834-0.049,3.669,0.096,5.505,0.096c1.062,0,1.593,0.048,2.364-0.821c0.58-0.627,1.209-1.472,1.209-2.341
			c0-0.049-0.024-0.291-0.192-0.291c-0.315,0-1.138,2.487-6.714,2.487c-2.027,0-1.834-0.579-1.834-2.003v-4.443
			c0-0.362-0.072-0.772,0.434-0.772h3.573c2.028,0,1.208,2.125,1.957,2.125c0.168,0,0.265-0.097,0.265-0.314
			c0-0.651-0.048-1.279-0.048-1.907c0-0.772,0.048-1.593,0.048-2.438c0-0.193-0.072-0.458-0.265-0.458
			c-0.58,0,0.071,1.931-2.438,1.931h-2.608c-0.966,0-0.917,0-0.917-0.821V4.273z"/>
		<path fill="#FFFFFF" d="M199.704,15.403c0,3.38-2.125,2.317-2.125,3.163c0,0.12,0.023,0.265,0.313,0.265
			c0.17,0,1.426-0.096,2.271-0.096c1.183,0,1.858,0.096,2.438,0.096c0.242,0,0.266-0.193,0.266-0.313
			c0-0.652-2.125,0.192-2.125-1.979V6.662c0-0.482,0.072-0.554,0.168-0.554c0.17,0,0.461,0.409,0.509,0.458L211.8,18.252
			c0.506,0.555,0.748,0.676,0.917,0.676c0.192,0,0.217-0.338,0.217-1.039V3.91c0-1.762,1.425-1.328,1.425-1.956
			c0-0.144-0.096-0.217-0.24-0.217c-0.58,0-1.619,0.097-2.439,0.097c-0.771,0-1.475-0.097-2.197-0.097
			c-0.145,0-0.266,0.073-0.266,0.242c0,0.796,2.68-0.121,2.68,3.042v10.092c0,0.192-0.023,0.265-0.072,0.265
			c-0.047,0-0.145-0.096-0.289-0.265l-11.518-12.82c-0.145-0.17-0.361-0.556-0.626-0.556c-0.362,0-0.75,0.097-1.112,0.097
			c-0.387,0-0.746-0.097-1.134-0.097c-0.12,0-0.362,0.097-0.362,0.242c0,0.893,2.922-0.508,2.922,4.515V15.403z"/>
		<path fill="#FFFFFF" d="M218.293,15.403c0,3.38-2.124,2.317-2.124,3.163c0,0.12,0.025,0.265,0.314,0.265
			c0.168,0,1.424-0.096,2.27-0.096c1.182,0,1.859,0.096,2.439,0.096c0.24,0,0.264-0.193,0.264-0.313
			c0-0.652-2.123,0.192-2.123-1.979V6.662c0-0.482,0.07-0.554,0.168-0.554c0.169,0,0.458,0.409,0.507,0.458l10.383,11.686
			c0.506,0.555,0.747,0.676,0.917,0.676c0.191,0,0.217-0.338,0.217-1.039V3.91c0-1.762,1.424-1.328,1.424-1.956
			c0-0.144-0.097-0.217-0.24-0.217c-0.579,0-1.619,0.097-2.438,0.097c-0.774,0-1.474-0.097-2.198-0.097
			c-0.144,0-0.265,0.073-0.265,0.242c0,0.796,2.681-0.121,2.681,3.042v10.092c0,0.192-0.025,0.265-0.074,0.265
			c-0.047,0-0.144-0.096-0.289-0.265l-11.516-12.82c-0.146-0.17-0.363-0.556-0.63-0.556c-0.362,0-0.747,0.097-1.108,0.097
			c-0.387,0-0.75-0.097-1.135-0.097c-0.121,0-0.363,0.097-0.363,0.242c0,0.893,2.921-0.508,2.921,4.515V15.403z"/>
		<path fill="#FFFFFF" d="M238.637,4.273c0-1.618-0.049-1.521,2.269-1.521c0.967,0,3.479-0.145,4.105,0.676
			c0.387,0.556,0,1.714,0.579,1.714c0.146,0,0.483-0.193,0.483-2.872c0-0.29-0.049-0.532-0.242-0.532
			c-0.746,0-2.969,0.097-3.451,0.097c-1.014,0-2.27-0.097-6.832-0.097c-0.701,0-0.846,0.097-0.846,0.29
			c0,0.29,0.531,0.338,0.725,0.387c1.302,0.193,1.302,1.351,1.302,2.438v11.01c0,1.134-0.047,1.81-0.675,2.1
			c-0.771,0.386-1.014,0.338-1.063,0.628c0,0.193,0.145,0.241,0.361,0.241c0.967,0,1.98-0.072,2.946-0.096
			c1.835-0.049,3.67,0.096,5.506,0.096c1.062,0,1.593,0.048,2.365-0.821c0.579-0.627,1.208-1.472,1.208-2.341
			c0-0.049-0.025-0.291-0.193-0.291c-0.314,0-1.136,2.487-6.713,2.487c-2.027,0-1.835-0.579-1.835-2.003v-4.443
			c0-0.362-0.071-0.772,0.435-0.772h3.572c2.029,0,1.208,2.125,1.957,2.125c0.168,0,0.266-0.097,0.266-0.314
			c0-0.651-0.049-1.279-0.049-1.907c0-0.772,0.049-1.593,0.049-2.438c0-0.193-0.072-0.458-0.266-0.458
			c-0.579,0,0.072,1.931-2.438,1.931h-2.608c-0.967,0-0.918,0-0.918-0.821V4.273z"/>
		<path fill="#FFFFFF" d="M249.51,17.672c0.097,0.436,2.293,1.328,4.08,1.328c5.481,0,6.905-3.042,6.905-5.07
			c0-6.664-9.803-4.008-9.803-8.547c0-2.221,2.029-3.139,3.936-3.139c2.126,0,3.888,1.063,4.611,3.139
			c0.073,0.217,0.242,0.726,0.508,0.726c0.24,0,0.289-0.17,0.266-0.363l-0.361-3.283c-0.025-0.266-0.146-0.339-0.291-0.339
			c-0.24,0-0.289,0.266-0.507,0.266c-0.338,0-1.134-0.868-4.056-0.868c-2.776,0-5.36,1.473-5.36,4.538
			c0,6.302,9.802,3.694,9.802,8.354c0,2.535-2.244,3.814-4.537,3.814c-3.334,0-4.781-2.512-5.071-3.621
			c-0.121-0.508-0.121-0.798-0.459-0.798c-0.242,0-0.362,0.267-0.267,0.749L249.51,17.672z"/>
		<path fill="#FFFFFF" d="M262.257,17.672c0.096,0.436,2.295,1.328,4.081,1.328c5.481,0,6.905-3.042,6.905-5.07
			c0-6.664-9.803-4.008-9.803-8.547c0-2.221,2.028-3.139,3.936-3.139c2.125,0,3.888,1.063,4.611,3.139
			c0.072,0.217,0.242,0.726,0.506,0.726c0.242,0,0.291-0.17,0.267-0.363l-0.362-3.283c-0.025-0.266-0.145-0.339-0.289-0.339
			c-0.24,0-0.289,0.266-0.508,0.266c-0.337,0-1.134-0.868-4.056-0.868c-2.776,0-5.36,1.473-5.36,4.538
			c0,6.302,9.803,3.694,9.803,8.354c0,2.535-2.246,3.814-4.539,3.814c-3.332,0-4.78-2.512-5.07-3.621
			c-0.121-0.508-0.121-0.798-0.459-0.798c-0.241,0-0.362,0.267-0.266,0.749L262.257,17.672z"/>
		<path fill="#FFFFFF" d="M278.346,4.273c0-1.618-0.049-1.521,2.269-1.521c0.967,0,3.477-0.145,4.105,0.676
			c0.387,0.556,0,1.714,0.579,1.714c0.146,0,0.483-0.193,0.483-2.872c0-0.29-0.049-0.532-0.242-0.532
			c-0.748,0-2.971,0.097-3.453,0.097c-1.014,0-2.27-0.097-6.832-0.097c-0.7,0-0.846,0.097-0.846,0.29
			c0,0.29,0.531,0.338,0.725,0.387c1.304,0.193,1.304,1.351,1.304,2.438v11.01c0,1.134-0.049,1.81-0.676,2.1
			c-0.772,0.386-1.013,0.338-1.062,0.628c0,0.193,0.145,0.241,0.361,0.241c0.967,0,1.98-0.072,2.946-0.096
			c1.835-0.049,3.669,0.096,5.504,0.096c1.062,0,1.595,0.048,2.367-0.821c0.579-0.627,1.208-1.472,1.208-2.341
			c0-0.049-0.025-0.291-0.195-0.291c-0.313,0-1.134,2.487-6.711,2.487c-2.029,0-1.835-0.579-1.835-2.003v-4.443
			c0-0.362-0.073-0.772,0.435-0.772h3.572c2.029,0,1.208,2.125,1.956,2.125c0.169,0,0.265-0.097,0.265-0.314
			c0-0.651-0.047-1.279-0.047-1.907c0-0.772,0.047-1.593,0.047-2.438c0-0.193-0.07-0.458-0.265-0.458
			c-0.58,0,0.073,1.931-2.438,1.931h-2.606c-0.967,0-0.918,0-0.918-0.821V4.273z"/>
		<path fill="#FFFFFF" d="M291.446,4.273c0-1.618-0.049-1.521,2.27-1.521c0.966,0,3.477-0.145,4.105,0.676
			c0.385,0.556,0,1.714,0.578,1.714c0.146,0,0.483-0.193,0.483-2.872c0-0.29-0.049-0.532-0.241-0.532
			c-0.749,0-2.971,0.097-3.451,0.097c-1.017,0-2.271-0.097-6.834-0.097c-0.701,0-0.845,0.097-0.845,0.29
			c0,0.29,0.53,0.338,0.724,0.387c1.303,0.193,1.303,1.351,1.303,2.438v11.01c0,1.134-0.047,1.81-0.676,2.1
			c-0.772,0.386-1.013,0.338-1.062,0.628c0,0.193,0.146,0.241,0.362,0.241c0.966,0,1.979-0.072,2.945-0.096
			c1.836-0.049,3.67,0.096,5.504,0.096c1.063,0,1.594,0.048,2.367-0.821c0.579-0.627,1.206-1.472,1.206-2.341
			c0-0.049-0.022-0.291-0.192-0.291c-0.313,0-1.135,2.487-6.711,2.487c-2.029,0-1.836-0.579-1.836-2.003v-4.443
			c0-0.362-0.072-0.772,0.435-0.772h3.573c2.029,0,1.207,2.125,1.955,2.125c0.17,0,0.266-0.097,0.266-0.314
			c0-0.651-0.049-1.279-0.049-1.907c0-0.772,0.049-1.593,0.049-2.438c0-0.193-0.071-0.458-0.266-0.458
			c-0.58,0,0.074,1.931-2.438,1.931h-2.606c-0.967,0-0.918,0-0.918-0.821V4.273z"/>
		<g>
			<line fill="#FFFFFF" x1="2.182" y1="24.761" x2="329.549" y2="24.761"/>
			<rect x="2.182" y="24.511" fill="#FFFFFF" width="327.367" height="0.5"/>
		</g>
		<path fill="#FFFFFF" d="M324.681,31.042c0-0.527,0.283-0.5,0.769-0.5c1.324,0,2.58,0.554,2.58,2.201
			c0,1.674-1.297,1.917-1.877,1.917c-0.635,0-1.472,0.067-1.472-0.189V31.042z M327.34,34.768c0.945-0.378,1.701-1.282,1.701-2.336
			c0-2.604-2.983-2.335-3.199-2.335c-0.702,0-1.473,0.055-2.255,0.055c-0.688,0-0.621-0.055-0.864-0.055
			c-0.162,0-0.27,0.081-0.27,0.162c0,0.459,1.16-0.095,1.16,1.201v6.872c0,1.026-0.984,0.837-0.984,1.174
			c0,0.081,0.054,0.149,0.135,0.149c0.514,0,1.025-0.055,1.539-0.055c1.12,0,1.432,0.055,1.552,0.055c0.108,0,0.23,0.026,0.23-0.108
			c0-0.459-1.404-0.041-1.404-1.202v-2.848c0-0.135-0.081-0.378,0.351-0.378c1.513,0,1.31-0.041,1.795,0.715l1.5,2.363
			c0.513,0.769,1.039,1.458,2.024,1.458c0.121,0,0.877,0,0.877-0.162c0-0.324-0.661,0.175-1.633-1.311L327.34,34.768z
			 M316.701,31.514c0-0.903-0.026-0.85,1.27-0.85c0.54,0,1.943-0.081,2.295,0.378c0.217,0.311,0,0.958,0.324,0.958
			c0.081,0,0.27-0.108,0.27-1.605c0-0.162-0.027-0.298-0.135-0.298c-0.418,0-1.66,0.055-1.93,0.055c-0.567,0-1.27-0.055-3.821-0.055
			c-0.392,0-0.472,0.055-0.472,0.162c0,0.162,0.297,0.189,0.404,0.216c0.729,0.108,0.729,0.757,0.729,1.363v6.156
			c0,0.635-0.026,1.013-0.378,1.175c-0.432,0.216-0.566,0.189-0.594,0.352c0,0.107,0.08,0.135,0.201,0.135
			c0.541,0,1.107-0.041,1.647-0.055c1.026-0.026,2.052,0.055,3.078,0.055c0.594,0,0.892,0.026,1.323-0.459
			c0.324-0.352,0.675-0.824,0.675-1.311c0-0.026-0.013-0.162-0.108-0.162c-0.175,0-0.634,1.392-3.753,1.392
			c-1.134,0-1.026-0.324-1.026-1.121V35.51c0-0.202-0.039-0.432,0.244-0.432h1.998c1.133,0,0.674,1.188,1.094,1.188
			c0.094,0,0.147-0.054,0.147-0.175c0-0.365-0.026-0.716-0.026-1.066c0-0.433,0.026-0.892,0.026-1.363
			c0-0.108-0.04-0.257-0.147-0.257c-0.324,0,0.039,1.08-1.364,1.08h-1.458c-0.54,0-0.514,0-0.514-0.459V31.514z M308.629,38.48
			c0,0.81-1.066,0.675-1.066,0.999c0,0.135,0.04,0.176,0.162,0.176c0.081,0,0.337-0.055,1.849-0.055
			c0.393,0,0.771,0.055,1.095,0.055c0.135,0,0.12-0.122,0.12-0.162c0-0.419-1.092,0.027-1.092-1.107v-6.885
			c0-0.716-0.068-0.662,0.539-0.662h1.93c1.378,0,0.648,1.026,1.148,1.026c0.175,0,0.162-0.162,0.148-0.297l-0.067-1.08
			c-0.014-0.311-0.081-0.392-0.392-0.392c-0.27,0-1.512,0.055-3.955,0.055c-1.742,0-2.781-0.055-3.834-0.055
			c-0.243,0-0.23,0.364-0.243,0.526l-0.149,1.31c0,0.067,0.055,0.162,0.135,0.162c0.177,0,0.189-0.176,0.23-0.311
			c0.243-0.742,0.27-0.945,1.107-0.945h2.199c0.189,0.015,0.136,0.527,0.136,0.621V38.48z M295.196,37.738
			c0,1.89-1.188,1.296-1.188,1.768c0,0.068,0.013,0.149,0.175,0.149c0.095,0,0.798-0.055,1.269-0.055
			c0.662,0,1.041,0.055,1.365,0.055c0.135,0,0.147-0.108,0.147-0.176c0-0.364-1.188,0.107-1.188-1.107v-5.521
			c0-0.27,0.041-0.311,0.096-0.311c0.094,0,0.256,0.23,0.283,0.257l5.805,6.534c0.283,0.31,0.419,0.378,0.513,0.378
			c0.108,0,0.122-0.188,0.122-0.581v-7.815c0-0.986,0.796-0.743,0.796-1.095c0-0.081-0.054-0.121-0.135-0.121
			c-0.324,0-0.904,0.055-1.363,0.055c-0.432,0-0.823-0.055-1.229-0.055c-0.08,0-0.147,0.04-0.147,0.136
			c0,0.444,1.498-0.068,1.498,1.7v5.644c0,0.107-0.013,0.147-0.04,0.147s-0.081-0.054-0.162-0.147l-6.439-7.169
			c-0.082-0.094-0.202-0.311-0.352-0.311c-0.201,0-0.418,0.055-0.621,0.055c-0.216,0-0.418-0.055-0.634-0.055
			c-0.067,0-0.203,0.055-0.203,0.136c0,0.499,1.634-0.284,1.634,2.523V37.738z M288.069,31.514c0-0.903-0.027-0.85,1.269-0.85
			c0.54,0,1.944-0.081,2.295,0.378c0.216,0.311,0,0.958,0.323,0.958c0.082,0,0.271-0.108,0.271-1.605
			c0-0.162-0.026-0.298-0.135-0.298c-0.419,0-1.661,0.055-1.931,0.055c-0.567,0-1.27-0.055-3.82-0.055
			c-0.393,0-0.473,0.055-0.473,0.162c0,0.162,0.297,0.189,0.404,0.216c0.729,0.108,0.729,0.757,0.729,1.363v6.156
			c0,0.635-0.027,1.013-0.378,1.175c-0.432,0.216-0.567,0.189-0.594,0.352c0,0.107,0.08,0.135,0.203,0.135
			c0.539,0,1.106-0.041,1.646-0.055c1.025-0.026,2.052,0.055,3.078,0.055c0.594,0,0.891,0.026,1.322-0.459
			c0.324-0.352,0.676-0.824,0.676-1.311c0-0.026-0.014-0.162-0.108-0.162c-0.176,0-0.635,1.392-3.753,1.392
			c-1.134,0-1.025-0.324-1.025-1.121V35.51c0-0.202-0.041-0.432,0.242-0.432h1.998c1.135,0,0.676,1.188,1.094,1.188
			c0.094,0,0.148-0.054,0.148-0.175c0-0.365-0.027-0.716-0.027-1.066c0-0.433,0.027-0.892,0.027-1.363
			c0-0.108-0.041-0.257-0.148-0.257c-0.324,0,0.041,1.08-1.363,1.08h-1.459c-0.539,0-0.512,0-0.512-0.459V31.514z M275.649,35.051
			c0,2.795,1.984,4.698,4.752,4.698c3.037,0,3.995-1.012,4.01-1.066l0.31-1.35c0.015-0.068-0.054-0.149-0.121-0.149
			c-0.081,0-0.162,0.081-0.188,0.177c-0.203,0.621-1.526,1.971-3.646,1.971c-2.592,0-3.942-2.349-3.942-4.698
			c0-2.511,1.27-4.266,3.901-4.266c1.742,0,2.7,0.877,3.537,2.322c0.054,0.094,0.149,0.444,0.312,0.444
			c0.229,0,0.107-0.444,0.08-1.161c-0.041-0.877-0.041-1.093-0.188-1.093c-0.136,0-0.216,0.135-0.324,0.135
			c-0.392,0-1.094-1.04-3.632-1.04C277.661,29.975,275.649,32.257,275.649,35.051 M265.821,31.514c0-0.903-0.027-0.85,1.269-0.85
			c0.54,0,1.944-0.081,2.295,0.378c0.216,0.311,0,0.958,0.324,0.958c0.081,0,0.27-0.108,0.27-1.605c0-0.162-0.026-0.298-0.135-0.298
			c-0.418,0-1.66,0.055-1.931,0.055c-0.566,0-1.269-0.055-3.82-0.055c-0.391,0-0.473,0.055-0.473,0.162
			c0,0.162,0.298,0.189,0.406,0.216c0.729,0.108,0.729,0.757,0.729,1.363v6.156c0,0.635-0.027,1.013-0.378,1.175
			c-0.433,0.216-0.567,0.189-0.595,0.352c0,0.107,0.082,0.135,0.203,0.135c0.539,0,1.106-0.041,1.646-0.055
			c1.025-0.026,2.052,0.055,3.078,0.055c0.594,0,0.891,0.026,1.322-0.459c0.324-0.352,0.676-0.824,0.676-1.311
			c0-0.026-0.014-0.162-0.108-0.162c-0.175,0-0.634,1.392-3.753,1.392c-1.134,0-1.025-0.324-1.025-1.121V35.51
			c0-0.202-0.041-0.432,0.242-0.432h1.998c1.135,0,0.676,1.188,1.094,1.188c0.094,0,0.148-0.054,0.148-0.175
			c0-0.365-0.027-0.716-0.027-1.066c0-0.433,0.027-0.892,0.027-1.363c0-0.108-0.04-0.257-0.148-0.257
			c-0.324,0,0.041,1.08-1.363,1.08h-1.458c-0.54,0-0.513,0-0.513-0.459V31.514z M253.401,35.051c0,2.795,1.984,4.698,4.752,4.698
			c3.037,0,3.996-1.012,4.01-1.066l0.31-1.35c0.015-0.068-0.054-0.149-0.121-0.149c-0.081,0-0.161,0.081-0.188,0.177
			c-0.203,0.621-1.526,1.971-3.646,1.971c-2.592,0-3.942-2.349-3.942-4.698c0-2.511,1.27-4.266,3.901-4.266
			c1.742,0,2.7,0.877,3.537,2.322c0.054,0.094,0.149,0.444,0.312,0.444c0.229,0,0.107-0.444,0.08-1.161
			c-0.041-0.877-0.041-1.093-0.188-1.093c-0.136,0-0.216,0.135-0.324,0.135c-0.392,0-1.094-1.04-3.632-1.04
			C255.413,29.975,253.401,32.257,253.401,35.051 M243.573,37.738c0,1.89-1.188,1.296-1.188,1.768c0,0.068,0.015,0.149,0.176,0.149
			c0.095,0,0.796-0.055,1.269-0.055c0.662,0,1.039,0.055,1.363,0.055c0.135,0,0.149-0.108,0.149-0.176
			c0-0.364-1.188,0.107-1.188-1.107v-5.521c0-0.27,0.041-0.311,0.094-0.311c0.096,0,0.258,0.23,0.285,0.257l5.805,6.534
			c0.283,0.31,0.418,0.378,0.513,0.378c0.108,0,0.121-0.188,0.121-0.581v-7.815c0-0.986,0.797-0.743,0.797-1.095
			c0-0.081-0.054-0.121-0.135-0.121c-0.324,0-0.905,0.055-1.364,0.055c-0.432,0-0.822-0.055-1.229-0.055
			c-0.08,0-0.148,0.04-0.148,0.136c0,0.444,1.499-0.068,1.499,1.7v5.644c0,0.107-0.014,0.147-0.041,0.147
			c-0.026,0-0.081-0.054-0.162-0.147l-6.438-7.169c-0.081-0.094-0.203-0.311-0.352-0.311c-0.203,0-0.419,0.055-0.621,0.055
			c-0.216,0-0.418-0.055-0.635-0.055c-0.066,0-0.201,0.055-0.201,0.136c0,0.499,1.633-0.284,1.633,2.523V37.738z M236.444,31.514
			c0-0.903-0.026-0.85,1.27-0.85c0.54,0,1.943-0.081,2.295,0.378c0.216,0.311,0,0.958,0.324,0.958c0.08,0,0.27-0.108,0.27-1.605
			c0-0.162-0.027-0.298-0.135-0.298c-0.418,0-1.66,0.055-1.93,0.055c-0.567,0-1.27-0.055-3.821-0.055
			c-0.392,0-0.472,0.055-0.472,0.162c0,0.162,0.297,0.189,0.404,0.216c0.729,0.108,0.729,0.757,0.729,1.363v6.156
			c0,0.635-0.027,1.013-0.378,1.175c-0.432,0.216-0.567,0.189-0.594,0.352c0,0.107,0.08,0.135,0.201,0.135
			c0.541,0,1.107-0.041,1.647-0.055c1.026-0.026,2.052,0.055,3.078,0.055c0.594,0,0.891,0.026,1.323-0.459
			c0.324-0.352,0.674-0.824,0.674-1.311c0-0.026-0.012-0.162-0.107-0.162c-0.175,0-0.634,1.392-3.753,1.392
			c-1.134,0-1.026-0.324-1.026-1.121V35.51c0-0.202-0.039-0.432,0.243-0.432h1.998c1.134,0,0.675,1.188,1.095,1.188
			c0.094,0,0.147-0.054,0.147-0.175c0-0.365-0.026-0.716-0.026-1.066c0-0.433,0.026-0.892,0.026-1.363
			c0-0.108-0.04-0.257-0.147-0.257c-0.324,0,0.039,1.08-1.365,1.08h-1.457c-0.54,0-0.514,0-0.514-0.459V31.514z M230.6,38.17
			c0,1.336-1.053,0.892-1.053,1.282c0,0.135,0.04,0.203,0.282,0.203c0.189,0,0.474-0.055,1.297-0.055c0.58,0,1.16,0.055,1.472,0.055
			c0.229,0,0.271-0.041,0.271-0.135c0-0.405-1.203-0.096-1.203-1.014v-7.249c0-1.013,0.973-0.702,0.973-1.025
			c0-0.108-0.04-0.136-0.256-0.136c-0.419,0-0.837,0.055-1.256,0.055c-0.499,0-0.985-0.055-1.485-0.055
			c-0.108,0-0.135,0.027-0.135,0.148c0,0.297,1.08,0.027,1.094,1.013V38.17z M218.989,35.051c0,2.795,1.985,4.698,4.752,4.698
			c3.039,0,3.996-1.012,4.011-1.066l0.31-1.35c0.014-0.068-0.054-0.149-0.121-0.149c-0.08,0-0.162,0.081-0.188,0.177
			c-0.203,0.621-1.526,1.971-3.646,1.971c-2.592,0-3.941-2.349-3.941-4.698c0-2.511,1.269-4.266,3.9-4.266
			c1.742,0,2.7,0.877,3.537,2.322c0.055,0.094,0.149,0.444,0.311,0.444c0.229,0,0.108-0.444,0.082-1.161
			c-0.041-0.877-0.041-1.093-0.189-1.093c-0.135,0-0.216,0.135-0.324,0.135c-0.392,0-1.094-1.04-3.632-1.04
			C221.002,29.975,218.989,32.257,218.989,35.051 M211.417,39.007c0.054,0.243,1.281,0.742,2.281,0.742
			c3.064,0,3.86-1.701,3.86-2.835c0-3.726-5.481-2.241-5.481-4.779c0-1.242,1.135-1.755,2.201-1.755
			c1.188,0,2.174,0.594,2.578,1.755c0.041,0.122,0.135,0.405,0.284,0.405c0.136,0,0.162-0.094,0.147-0.202l-0.201-1.836
			c-0.014-0.148-0.081-0.188-0.162-0.188c-0.135,0-0.162,0.147-0.284,0.147c-0.188,0-0.634-0.486-2.269-0.486
			c-1.551,0-2.996,0.824-2.996,2.538c0,3.524,5.48,2.066,5.48,4.671c0,1.419-1.255,2.134-2.537,2.134
			c-1.863,0-2.674-1.404-2.836-2.025c-0.066-0.283-0.066-0.445-0.256-0.445c-0.135,0-0.203,0.148-0.148,0.418L211.417,39.007z
			 M197.174,38.17c0,1.336-1.054,0.892-1.054,1.282c0,0.135,0.041,0.203,0.149,0.203c0.054,0,0.202-0.055,1.161-0.055
			c0.715,0,1.701,0.055,1.876,0.055c0.122,0,0.216-0.041,0.216-0.108c0-0.419-1.281-0.122-1.281-1.04v-3.36
			c0-0.149,0-0.23,0.162-0.23h4.98c0.162,0,0.107,0.122,0.107,0.338v3.24c0,0.85-0.944,0.661-0.944,0.985
			c0,0.216,0.202,0.176,0.323,0.176c0.258,0,0.636-0.055,1.5-0.055c0.486,0,0.904,0.055,1.269,0.055
			c0.095,0,0.147-0.122,0.147-0.162c0-0.338-1.228-0.095-1.228-1.08v-7.155c0-0.932,0.904-0.702,0.904-0.944
			c0-0.081-0.027-0.217-0.378-0.217c-0.27,0-0.473,0.055-0.973,0.055c-0.256,0-0.957-0.055-1.403-0.055
			c-0.202,0-0.229,0.067-0.229,0.148c0,0.311,1.012,0.081,1.012,1.013v2.768c0,0.054,0.027,0.392-0.107,0.392h-4.941
			c-0.201,0-0.201-0.054-0.201-0.243v-2.916c0-1.013,0.972-0.756,0.972-1.025c0-0.055-0.027-0.136-0.257-0.136
			c-0.418,0-0.838,0.055-1.256,0.055c-0.5,0-0.985-0.055-1.484-0.055c-0.107,0-0.217,0.027-0.217,0.148
			c0,0.297,1.162,0.027,1.175,1.013V38.17z M190.046,38.48c0,0.81-1.066,0.675-1.066,0.999c0,0.135,0.04,0.176,0.162,0.176
			c0.081,0,0.337-0.055,1.85-0.055c0.392,0,0.77,0.055,1.094,0.055c0.135,0,0.121-0.122,0.121-0.162
			c0-0.419-1.094,0.027-1.094-1.107v-6.885c0-0.716-0.067-0.662,0.541-0.662h1.93c1.377,0,0.648,1.026,1.148,1.026
			c0.174,0,0.161-0.162,0.147-0.297l-0.067-1.08c-0.014-0.311-0.08-0.392-0.392-0.392c-0.271,0-1.513,0.055-3.955,0.055
			c-1.742,0-2.781-0.055-3.834-0.055c-0.243,0-0.229,0.364-0.243,0.526l-0.148,1.31c0,0.067,0.054,0.162,0.135,0.162
			c0.176,0,0.188-0.176,0.229-0.311c0.243-0.742,0.271-0.945,1.107-0.945h2.2c0.188,0.015,0.135,0.527,0.135,0.621V38.48z
			 M181.997,31.433c0-1.174,0.986-0.837,0.986-1.146c0-0.162-0.08-0.189-0.257-0.189c-0.202,0-0.526,0.055-1.296,0.055
			c-0.661,0-1.08-0.055-1.363-0.055c-0.176,0-0.27,0.027-0.27,0.176c0,0.27,1.134,0.176,1.134,0.878v6.844
			c0,0.635-0.026,1.013-0.378,1.175c-0.432,0.216-0.566,0.189-0.594,0.352c0,0.107,0.08,0.135,0.201,0.135
			c0.541,0,1.107-0.041,1.647-0.055c1.026-0.026,2.052,0.055,3.078,0.055c0.595,0,0.892,0.026,1.323-0.459
			c0.324-0.352,0.675-0.824,0.675-1.311c0-0.026-0.013-0.162-0.108-0.162c-0.175,0-0.634,1.392-3.752,1.392
			c-1.135,0-1.027-0.324-1.027-1.121V31.433z M175.977,37.535c0.136,0.365,0.419,0.986,0.419,1.283c0,0.513-0.81,0.378-0.81,0.702
			c0,0.135,0.216,0.135,0.297,0.135c0.364,0,0.729-0.055,1.093-0.055c0.555,0,1.107,0.055,1.661,0.055c0.095,0,0.188,0,0.188-0.122
			c0-0.337-0.782-0.04-1.188-0.661c-0.311-0.473-0.473-1.04-0.675-1.539l-2.808-6.953c-0.041-0.107-0.136-0.499-0.285-0.499
			c-0.174,0-0.215,0.216-1.012,1.917l-3.227,6.885c-0.352,0.77-0.985,0.54-0.985,0.823c0,0.081,0.04,0.149,0.121,0.149
			c0.351,0,0.716-0.055,1.08-0.055c0.378,0,0.756,0.055,1.134,0.055c0.176,0,0.365,0.04,0.365-0.203
			c0-0.352-0.959,0.054-0.959-0.891c0-0.176,0.055-0.379,0.096-0.473l0.863-1.89c0.135-0.284,0.378-0.284,0.635-0.284h2.969
			c0.379,0,0.459,0.203,0.595,0.513L175.977,37.535z M173.426,31.798c0.081-0.162,0.147-0.162,0.216,0l1.323,3.253
			c0.067,0.177,0.081,0.271-0.216,0.271h-2.674c-0.176,0-0.27-0.055-0.176-0.243L173.426,31.798z M162.936,31.514
			c0-0.903-0.027-0.85,1.269-0.85c0.54,0,1.944-0.081,2.295,0.378c0.216,0.311,0,0.958,0.324,0.958c0.081,0,0.27-0.108,0.27-1.605
			c0-0.162-0.026-0.298-0.135-0.298c-0.418,0-1.66,0.055-1.93,0.055c-0.567,0-1.269-0.055-3.821-0.055
			c-0.391,0-0.472,0.055-0.472,0.162c0,0.162,0.297,0.189,0.405,0.216c0.729,0.108,0.729,0.757,0.729,1.363v6.156
			c0,0.635-0.027,1.013-0.378,1.175c-0.432,0.216-0.567,0.189-0.594,0.352c0,0.107,0.081,0.135,0.202,0.135
			c0.54,0,1.107-0.041,1.647-0.055c1.026-0.026,2.052,0.055,3.078,0.055c0.595,0,0.892,0.026,1.323-0.459
			c0.324-0.352,0.676-0.824,0.676-1.311c0-0.026-0.014-0.162-0.108-0.162c-0.175,0-0.634,1.392-3.753,1.392
			c-1.134,0-1.026-0.324-1.026-1.121V35.51c0-0.202-0.04-0.432,0.243-0.432h1.998c1.134,0,0.675,1.188,1.094,1.188
			c0.095,0,0.148-0.054,0.148-0.175c0-0.365-0.027-0.716-0.027-1.066c0-0.433,0.027-0.892,0.027-1.363
			c0-0.108-0.04-0.257-0.148-0.257c-0.323,0,0.04,1.08-1.364,1.08h-1.458c-0.54,0-0.513,0-0.513-0.459V31.514z M150.948,38.17
			c0,1.336-1.053,0.892-1.053,1.282c0,0.135,0.041,0.203,0.149,0.203c0.054,0,0.202-0.055,1.161-0.055
			c0.715,0,1.701,0.055,1.876,0.055c0.122,0,0.216-0.041,0.216-0.108c0-0.419-1.282-0.122-1.282-1.04v-3.36
			c0-0.149,0-0.23,0.162-0.23h4.981c0.162,0,0.108,0.122,0.108,0.338v3.24c0,0.85-0.945,0.661-0.945,0.985
			c0,0.216,0.203,0.176,0.324,0.176c0.257,0,0.635-0.055,1.499-0.055c0.486,0,0.904,0.055,1.269,0.055
			c0.094,0,0.148-0.122,0.148-0.162c0-0.338-1.228-0.095-1.228-1.08v-7.155c0-0.932,0.904-0.702,0.904-0.944
			c0-0.081-0.027-0.217-0.378-0.217c-0.27,0-0.472,0.055-0.972,0.055c-0.256,0-0.958-0.055-1.404-0.055
			c-0.202,0-0.229,0.067-0.229,0.148c0,0.311,1.012,0.081,1.012,1.013v2.768c0,0.054,0.027,0.392-0.108,0.392h-4.941
			c-0.202,0-0.202-0.054-0.202-0.243v-2.916c0-1.013,0.972-0.756,0.972-1.025c0-0.055-0.027-0.136-0.257-0.136
			c-0.418,0-0.837,0.055-1.255,0.055c-0.5,0-0.986-0.055-1.485-0.055c-0.108,0-0.216,0.027-0.216,0.148
			c0,0.297,1.161,0.027,1.174,1.013V38.17z"/>
		<path fill="#FFFFFF" d="M324.681,31.042c0-0.527,0.283-0.5,0.769-0.5c1.324,0,2.58,0.554,2.58,2.201
			c0,1.674-1.297,1.917-1.877,1.917c-0.635,0-1.472,0.067-1.472-0.189V31.042z M327.34,34.768c0.945-0.378,1.701-1.282,1.701-2.336
			c0-2.604-2.983-2.335-3.199-2.335c-0.702,0-1.473,0.055-2.255,0.055c-0.688,0-0.621-0.055-0.864-0.055
			c-0.162,0-0.27,0.081-0.27,0.162c0,0.459,1.16-0.095,1.16,1.201v6.872c0,1.026-0.984,0.837-0.984,1.174
			c0,0.081,0.054,0.149,0.135,0.149c0.514,0,1.025-0.055,1.539-0.055c1.12,0,1.432,0.055,1.552,0.055c0.108,0,0.23,0.026,0.23-0.108
			c0-0.459-1.404-0.041-1.404-1.202v-2.848c0-0.135-0.081-0.378,0.351-0.378c1.513,0,1.31-0.041,1.795,0.715l1.5,2.363
			c0.513,0.769,1.039,1.458,2.024,1.458c0.121,0,0.877,0,0.877-0.162c0-0.324-0.661,0.175-1.633-1.311L327.34,34.768z
			 M316.701,31.514c0-0.903-0.026-0.85,1.27-0.85c0.54,0,1.943-0.081,2.295,0.378c0.217,0.311,0,0.958,0.324,0.958
			c0.081,0,0.27-0.108,0.27-1.605c0-0.162-0.027-0.298-0.135-0.298c-0.418,0-1.66,0.055-1.93,0.055c-0.567,0-1.27-0.055-3.821-0.055
			c-0.392,0-0.472,0.055-0.472,0.162c0,0.162,0.297,0.189,0.404,0.216c0.729,0.108,0.729,0.757,0.729,1.363v6.156
			c0,0.635-0.026,1.013-0.378,1.175c-0.432,0.216-0.566,0.189-0.594,0.352c0,0.107,0.08,0.135,0.201,0.135
			c0.541,0,1.107-0.041,1.647-0.055c1.026-0.026,2.052,0.055,3.078,0.055c0.594,0,0.892,0.026,1.323-0.459
			c0.324-0.352,0.675-0.824,0.675-1.311c0-0.026-0.013-0.162-0.108-0.162c-0.175,0-0.634,1.392-3.753,1.392
			c-1.134,0-1.026-0.324-1.026-1.121V35.51c0-0.202-0.039-0.432,0.244-0.432h1.998c1.133,0,0.674,1.188,1.094,1.188
			c0.094,0,0.147-0.054,0.147-0.175c0-0.365-0.026-0.716-0.026-1.066c0-0.433,0.026-0.892,0.026-1.363
			c0-0.108-0.04-0.257-0.147-0.257c-0.324,0,0.039,1.08-1.364,1.08h-1.458c-0.54,0-0.514,0-0.514-0.459V31.514z M308.629,38.48
			c0,0.81-1.066,0.675-1.066,0.999c0,0.135,0.04,0.176,0.162,0.176c0.081,0,0.337-0.055,1.849-0.055
			c0.393,0,0.771,0.055,1.095,0.055c0.135,0,0.12-0.122,0.12-0.162c0-0.419-1.092,0.027-1.092-1.107v-6.885
			c0-0.716-0.068-0.662,0.539-0.662h1.93c1.378,0,0.648,1.026,1.148,1.026c0.175,0,0.162-0.162,0.148-0.297l-0.067-1.08
			c-0.014-0.311-0.081-0.392-0.392-0.392c-0.27,0-1.512,0.055-3.955,0.055c-1.742,0-2.781-0.055-3.834-0.055
			c-0.243,0-0.23,0.364-0.243,0.526l-0.149,1.31c0,0.067,0.055,0.162,0.135,0.162c0.177,0,0.189-0.176,0.23-0.311
			c0.243-0.742,0.27-0.945,1.107-0.945h2.199c0.189,0.015,0.136,0.527,0.136,0.621V38.48z M295.196,37.738
			c0,1.89-1.188,1.296-1.188,1.768c0,0.068,0.013,0.149,0.175,0.149c0.095,0,0.798-0.055,1.269-0.055
			c0.662,0,1.041,0.055,1.365,0.055c0.135,0,0.147-0.108,0.147-0.176c0-0.364-1.188,0.107-1.188-1.107v-5.521
			c0-0.27,0.041-0.311,0.096-0.311c0.094,0,0.256,0.23,0.283,0.257l5.805,6.534c0.283,0.31,0.419,0.378,0.513,0.378
			c0.108,0,0.122-0.188,0.122-0.581v-7.815c0-0.986,0.796-0.743,0.796-1.095c0-0.081-0.054-0.121-0.135-0.121
			c-0.324,0-0.904,0.055-1.363,0.055c-0.432,0-0.823-0.055-1.229-0.055c-0.08,0-0.147,0.04-0.147,0.136
			c0,0.444,1.498-0.068,1.498,1.7v5.644c0,0.107-0.013,0.147-0.04,0.147s-0.081-0.054-0.162-0.147l-6.439-7.169
			c-0.082-0.094-0.202-0.311-0.352-0.311c-0.201,0-0.418,0.055-0.621,0.055c-0.216,0-0.418-0.055-0.634-0.055
			c-0.067,0-0.203,0.055-0.203,0.136c0,0.499,1.634-0.284,1.634,2.523V37.738z M288.069,31.514c0-0.903-0.027-0.85,1.269-0.85
			c0.54,0,1.944-0.081,2.295,0.378c0.216,0.311,0,0.958,0.323,0.958c0.082,0,0.271-0.108,0.271-1.605
			c0-0.162-0.026-0.298-0.135-0.298c-0.419,0-1.661,0.055-1.931,0.055c-0.567,0-1.27-0.055-3.82-0.055
			c-0.393,0-0.473,0.055-0.473,0.162c0,0.162,0.297,0.189,0.404,0.216c0.729,0.108,0.729,0.757,0.729,1.363v6.156
			c0,0.635-0.027,1.013-0.378,1.175c-0.432,0.216-0.567,0.189-0.594,0.352c0,0.107,0.08,0.135,0.203,0.135
			c0.539,0,1.106-0.041,1.646-0.055c1.025-0.026,2.052,0.055,3.078,0.055c0.594,0,0.891,0.026,1.322-0.459
			c0.324-0.352,0.676-0.824,0.676-1.311c0-0.026-0.014-0.162-0.108-0.162c-0.176,0-0.635,1.392-3.753,1.392
			c-1.134,0-1.025-0.324-1.025-1.121V35.51c0-0.202-0.041-0.432,0.242-0.432h1.998c1.135,0,0.676,1.188,1.094,1.188
			c0.094,0,0.148-0.054,0.148-0.175c0-0.365-0.027-0.716-0.027-1.066c0-0.433,0.027-0.892,0.027-1.363
			c0-0.108-0.041-0.257-0.148-0.257c-0.324,0,0.041,1.08-1.363,1.08h-1.459c-0.539,0-0.512,0-0.512-0.459V31.514z M275.649,35.051
			c0,2.795,1.984,4.698,4.752,4.698c3.037,0,3.995-1.012,4.01-1.066l0.31-1.35c0.015-0.068-0.054-0.149-0.121-0.149
			c-0.081,0-0.162,0.081-0.188,0.177c-0.203,0.621-1.526,1.971-3.646,1.971c-2.592,0-3.942-2.349-3.942-4.698
			c0-2.511,1.27-4.266,3.901-4.266c1.742,0,2.7,0.877,3.537,2.322c0.054,0.094,0.149,0.444,0.312,0.444
			c0.229,0,0.107-0.444,0.08-1.161c-0.041-0.877-0.041-1.093-0.188-1.093c-0.136,0-0.216,0.135-0.324,0.135
			c-0.392,0-1.094-1.04-3.632-1.04C277.661,29.975,275.649,32.257,275.649,35.051z M265.821,31.514c0-0.903-0.027-0.85,1.269-0.85
			c0.54,0,1.944-0.081,2.295,0.378c0.216,0.311,0,0.958,0.324,0.958c0.081,0,0.27-0.108,0.27-1.605c0-0.162-0.026-0.298-0.135-0.298
			c-0.418,0-1.66,0.055-1.931,0.055c-0.566,0-1.269-0.055-3.82-0.055c-0.391,0-0.473,0.055-0.473,0.162
			c0,0.162,0.298,0.189,0.406,0.216c0.729,0.108,0.729,0.757,0.729,1.363v6.156c0,0.635-0.027,1.013-0.378,1.175
			c-0.433,0.216-0.567,0.189-0.595,0.352c0,0.107,0.082,0.135,0.203,0.135c0.539,0,1.106-0.041,1.646-0.055
			c1.025-0.026,2.052,0.055,3.078,0.055c0.594,0,0.891,0.026,1.322-0.459c0.324-0.352,0.676-0.824,0.676-1.311
			c0-0.026-0.014-0.162-0.108-0.162c-0.175,0-0.634,1.392-3.753,1.392c-1.134,0-1.025-0.324-1.025-1.121V35.51
			c0-0.202-0.041-0.432,0.242-0.432h1.998c1.135,0,0.676,1.188,1.094,1.188c0.094,0,0.148-0.054,0.148-0.175
			c0-0.365-0.027-0.716-0.027-1.066c0-0.433,0.027-0.892,0.027-1.363c0-0.108-0.04-0.257-0.148-0.257
			c-0.324,0,0.041,1.08-1.363,1.08h-1.458c-0.54,0-0.513,0-0.513-0.459V31.514z M253.401,35.051c0,2.795,1.984,4.698,4.752,4.698
			c3.037,0,3.996-1.012,4.01-1.066l0.31-1.35c0.015-0.068-0.054-0.149-0.121-0.149c-0.081,0-0.161,0.081-0.188,0.177
			c-0.203,0.621-1.526,1.971-3.646,1.971c-2.592,0-3.942-2.349-3.942-4.698c0-2.511,1.27-4.266,3.901-4.266
			c1.742,0,2.7,0.877,3.537,2.322c0.054,0.094,0.149,0.444,0.312,0.444c0.229,0,0.107-0.444,0.08-1.161
			c-0.041-0.877-0.041-1.093-0.188-1.093c-0.136,0-0.216,0.135-0.324,0.135c-0.392,0-1.094-1.04-3.632-1.04
			C255.413,29.975,253.401,32.257,253.401,35.051z M243.573,37.738c0,1.89-1.188,1.296-1.188,1.768c0,0.068,0.015,0.149,0.176,0.149
			c0.095,0,0.796-0.055,1.269-0.055c0.662,0,1.039,0.055,1.363,0.055c0.135,0,0.149-0.108,0.149-0.176
			c0-0.364-1.188,0.107-1.188-1.107v-5.521c0-0.27,0.041-0.311,0.094-0.311c0.096,0,0.258,0.23,0.285,0.257l5.805,6.534
			c0.283,0.31,0.418,0.378,0.513,0.378c0.108,0,0.121-0.188,0.121-0.581v-7.815c0-0.986,0.797-0.743,0.797-1.095
			c0-0.081-0.054-0.121-0.135-0.121c-0.324,0-0.905,0.055-1.364,0.055c-0.432,0-0.822-0.055-1.229-0.055
			c-0.08,0-0.148,0.04-0.148,0.136c0,0.444,1.499-0.068,1.499,1.7v5.644c0,0.107-0.014,0.147-0.041,0.147
			c-0.026,0-0.081-0.054-0.162-0.147l-6.438-7.169c-0.081-0.094-0.203-0.311-0.352-0.311c-0.203,0-0.419,0.055-0.621,0.055
			c-0.216,0-0.418-0.055-0.635-0.055c-0.066,0-0.201,0.055-0.201,0.136c0,0.499,1.633-0.284,1.633,2.523V37.738z M236.444,31.514
			c0-0.903-0.026-0.85,1.27-0.85c0.54,0,1.943-0.081,2.295,0.378c0.216,0.311,0,0.958,0.324,0.958c0.08,0,0.27-0.108,0.27-1.605
			c0-0.162-0.027-0.298-0.135-0.298c-0.418,0-1.66,0.055-1.93,0.055c-0.567,0-1.27-0.055-3.821-0.055
			c-0.392,0-0.472,0.055-0.472,0.162c0,0.162,0.297,0.189,0.404,0.216c0.729,0.108,0.729,0.757,0.729,1.363v6.156
			c0,0.635-0.027,1.013-0.378,1.175c-0.432,0.216-0.567,0.189-0.594,0.352c0,0.107,0.08,0.135,0.201,0.135
			c0.541,0,1.107-0.041,1.647-0.055c1.026-0.026,2.052,0.055,3.078,0.055c0.594,0,0.891,0.026,1.323-0.459
			c0.324-0.352,0.674-0.824,0.674-1.311c0-0.026-0.012-0.162-0.107-0.162c-0.175,0-0.634,1.392-3.753,1.392
			c-1.134,0-1.026-0.324-1.026-1.121V35.51c0-0.202-0.039-0.432,0.243-0.432h1.998c1.134,0,0.675,1.188,1.095,1.188
			c0.094,0,0.147-0.054,0.147-0.175c0-0.365-0.026-0.716-0.026-1.066c0-0.433,0.026-0.892,0.026-1.363
			c0-0.108-0.04-0.257-0.147-0.257c-0.324,0,0.039,1.08-1.365,1.08h-1.457c-0.54,0-0.514,0-0.514-0.459V31.514z M230.6,38.17
			c0,1.336-1.053,0.892-1.053,1.282c0,0.135,0.04,0.203,0.282,0.203c0.189,0,0.474-0.055,1.297-0.055c0.58,0,1.16,0.055,1.472,0.055
			c0.229,0,0.271-0.041,0.271-0.135c0-0.405-1.203-0.096-1.203-1.014v-7.249c0-1.013,0.973-0.702,0.973-1.025
			c0-0.108-0.04-0.136-0.256-0.136c-0.419,0-0.837,0.055-1.256,0.055c-0.499,0-0.985-0.055-1.485-0.055
			c-0.108,0-0.135,0.027-0.135,0.148c0,0.297,1.08,0.027,1.094,1.013V38.17z M218.989,35.051c0,2.795,1.985,4.698,4.752,4.698
			c3.039,0,3.996-1.012,4.011-1.066l0.31-1.35c0.014-0.068-0.054-0.149-0.121-0.149c-0.08,0-0.162,0.081-0.188,0.177
			c-0.203,0.621-1.526,1.971-3.646,1.971c-2.592,0-3.941-2.349-3.941-4.698c0-2.511,1.269-4.266,3.9-4.266
			c1.742,0,2.7,0.877,3.537,2.322c0.055,0.094,0.149,0.444,0.311,0.444c0.229,0,0.108-0.444,0.082-1.161
			c-0.041-0.877-0.041-1.093-0.189-1.093c-0.135,0-0.216,0.135-0.324,0.135c-0.392,0-1.094-1.04-3.632-1.04
			C221.002,29.975,218.989,32.257,218.989,35.051z M211.417,39.007c0.054,0.243,1.281,0.742,2.281,0.742
			c3.064,0,3.86-1.701,3.86-2.835c0-3.726-5.481-2.241-5.481-4.779c0-1.242,1.135-1.755,2.201-1.755
			c1.188,0,2.174,0.594,2.578,1.755c0.041,0.122,0.135,0.405,0.284,0.405c0.136,0,0.162-0.094,0.147-0.202l-0.201-1.836
			c-0.014-0.148-0.081-0.188-0.162-0.188c-0.135,0-0.162,0.147-0.284,0.147c-0.188,0-0.634-0.486-2.269-0.486
			c-1.551,0-2.996,0.824-2.996,2.538c0,3.524,5.48,2.066,5.48,4.671c0,1.419-1.255,2.134-2.537,2.134
			c-1.863,0-2.674-1.404-2.836-2.025c-0.066-0.283-0.066-0.445-0.256-0.445c-0.135,0-0.203,0.148-0.148,0.418L211.417,39.007z
			 M197.174,38.17c0,1.336-1.054,0.892-1.054,1.282c0,0.135,0.041,0.203,0.149,0.203c0.054,0,0.202-0.055,1.161-0.055
			c0.715,0,1.701,0.055,1.876,0.055c0.122,0,0.216-0.041,0.216-0.108c0-0.419-1.281-0.122-1.281-1.04v-3.36
			c0-0.149,0-0.23,0.162-0.23h4.98c0.162,0,0.107,0.122,0.107,0.338v3.24c0,0.85-0.944,0.661-0.944,0.985
			c0,0.216,0.202,0.176,0.323,0.176c0.258,0,0.636-0.055,1.5-0.055c0.486,0,0.904,0.055,1.269,0.055
			c0.095,0,0.147-0.122,0.147-0.162c0-0.338-1.228-0.095-1.228-1.08v-7.155c0-0.932,0.904-0.702,0.904-0.944
			c0-0.081-0.027-0.217-0.378-0.217c-0.27,0-0.473,0.055-0.973,0.055c-0.256,0-0.957-0.055-1.403-0.055
			c-0.202,0-0.229,0.067-0.229,0.148c0,0.311,1.012,0.081,1.012,1.013v2.768c0,0.054,0.027,0.392-0.107,0.392h-4.941
			c-0.201,0-0.201-0.054-0.201-0.243v-2.916c0-1.013,0.972-0.756,0.972-1.025c0-0.055-0.027-0.136-0.257-0.136
			c-0.418,0-0.838,0.055-1.256,0.055c-0.5,0-0.985-0.055-1.484-0.055c-0.107,0-0.217,0.027-0.217,0.148
			c0,0.297,1.162,0.027,1.175,1.013V38.17z M190.046,38.48c0,0.81-1.066,0.675-1.066,0.999c0,0.135,0.04,0.176,0.162,0.176
			c0.081,0,0.337-0.055,1.85-0.055c0.392,0,0.77,0.055,1.094,0.055c0.135,0,0.121-0.122,0.121-0.162
			c0-0.419-1.094,0.027-1.094-1.107v-6.885c0-0.716-0.067-0.662,0.541-0.662h1.93c1.377,0,0.648,1.026,1.148,1.026
			c0.174,0,0.161-0.162,0.147-0.297l-0.067-1.08c-0.014-0.311-0.08-0.392-0.392-0.392c-0.271,0-1.513,0.055-3.955,0.055
			c-1.742,0-2.781-0.055-3.834-0.055c-0.243,0-0.229,0.364-0.243,0.526l-0.148,1.31c0,0.067,0.054,0.162,0.135,0.162
			c0.176,0,0.188-0.176,0.229-0.311c0.243-0.742,0.271-0.945,1.107-0.945h2.2c0.188,0.015,0.135,0.527,0.135,0.621V38.48z
			 M181.997,31.433c0-1.174,0.986-0.837,0.986-1.146c0-0.162-0.08-0.189-0.257-0.189c-0.202,0-0.526,0.055-1.296,0.055
			c-0.661,0-1.08-0.055-1.363-0.055c-0.176,0-0.27,0.027-0.27,0.176c0,0.27,1.134,0.176,1.134,0.878v6.844
			c0,0.635-0.026,1.013-0.378,1.175c-0.432,0.216-0.566,0.189-0.594,0.352c0,0.107,0.08,0.135,0.201,0.135
			c0.541,0,1.107-0.041,1.647-0.055c1.026-0.026,2.052,0.055,3.078,0.055c0.595,0,0.892,0.026,1.323-0.459
			c0.324-0.352,0.675-0.824,0.675-1.311c0-0.026-0.013-0.162-0.108-0.162c-0.175,0-0.634,1.392-3.752,1.392
			c-1.135,0-1.027-0.324-1.027-1.121V31.433z M175.977,37.535c0.136,0.365,0.419,0.986,0.419,1.283c0,0.513-0.81,0.378-0.81,0.702
			c0,0.135,0.216,0.135,0.297,0.135c0.364,0,0.729-0.055,1.093-0.055c0.555,0,1.107,0.055,1.661,0.055c0.095,0,0.188,0,0.188-0.122
			c0-0.337-0.782-0.04-1.188-0.661c-0.311-0.473-0.473-1.04-0.675-1.539l-2.808-6.953c-0.041-0.107-0.136-0.499-0.285-0.499
			c-0.174,0-0.215,0.216-1.012,1.917l-3.227,6.885c-0.352,0.77-0.985,0.54-0.985,0.823c0,0.081,0.04,0.149,0.121,0.149
			c0.351,0,0.716-0.055,1.08-0.055c0.378,0,0.756,0.055,1.134,0.055c0.176,0,0.365,0.04,0.365-0.203
			c0-0.352-0.959,0.054-0.959-0.891c0-0.176,0.055-0.379,0.096-0.473l0.863-1.89c0.135-0.284,0.378-0.284,0.635-0.284h2.969
			c0.379,0,0.459,0.203,0.595,0.513L175.977,37.535z M173.426,31.798c0.081-0.162,0.147-0.162,0.216,0l1.323,3.253
			c0.067,0.177,0.081,0.271-0.216,0.271h-2.674c-0.176,0-0.27-0.055-0.176-0.243L173.426,31.798z M162.936,31.514
			c0-0.903-0.027-0.85,1.269-0.85c0.54,0,1.944-0.081,2.295,0.378c0.216,0.311,0,0.958,0.324,0.958c0.081,0,0.27-0.108,0.27-1.605
			c0-0.162-0.026-0.298-0.135-0.298c-0.418,0-1.66,0.055-1.93,0.055c-0.567,0-1.269-0.055-3.821-0.055
			c-0.391,0-0.472,0.055-0.472,0.162c0,0.162,0.297,0.189,0.405,0.216c0.729,0.108,0.729,0.757,0.729,1.363v6.156
			c0,0.635-0.027,1.013-0.378,1.175c-0.432,0.216-0.567,0.189-0.594,0.352c0,0.107,0.081,0.135,0.202,0.135
			c0.54,0,1.107-0.041,1.647-0.055c1.026-0.026,2.052,0.055,3.078,0.055c0.595,0,0.892,0.026,1.323-0.459
			c0.324-0.352,0.676-0.824,0.676-1.311c0-0.026-0.014-0.162-0.108-0.162c-0.175,0-0.634,1.392-3.753,1.392
			c-1.134,0-1.026-0.324-1.026-1.121V35.51c0-0.202-0.04-0.432,0.243-0.432h1.998c1.134,0,0.675,1.188,1.094,1.188
			c0.095,0,0.148-0.054,0.148-0.175c0-0.365-0.027-0.716-0.027-1.066c0-0.433,0.027-0.892,0.027-1.363
			c0-0.108-0.04-0.257-0.148-0.257c-0.323,0,0.04,1.08-1.364,1.08h-1.458c-0.54,0-0.513,0-0.513-0.459V31.514z M150.948,38.17
			c0,1.336-1.053,0.892-1.053,1.282c0,0.135,0.041,0.203,0.149,0.203c0.054,0,0.202-0.055,1.161-0.055
			c0.715,0,1.701,0.055,1.876,0.055c0.122,0,0.216-0.041,0.216-0.108c0-0.419-1.282-0.122-1.282-1.04v-3.36
			c0-0.149,0-0.23,0.162-0.23h4.981c0.162,0,0.108,0.122,0.108,0.338v3.24c0,0.85-0.945,0.661-0.945,0.985
			c0,0.216,0.203,0.176,0.324,0.176c0.257,0,0.635-0.055,1.499-0.055c0.486,0,0.904,0.055,1.269,0.055
			c0.094,0,0.148-0.122,0.148-0.162c0-0.338-1.228-0.095-1.228-1.08v-7.155c0-0.932,0.904-0.702,0.904-0.944
			c0-0.081-0.027-0.217-0.378-0.217c-0.27,0-0.472,0.055-0.972,0.055c-0.256,0-0.958-0.055-1.404-0.055
			c-0.202,0-0.229,0.067-0.229,0.148c0,0.311,1.012,0.081,1.012,1.013v2.768c0,0.054,0.027,0.392-0.108,0.392h-4.941
			c-0.202,0-0.202-0.054-0.202-0.243v-2.916c0-1.013,0.972-0.756,0.972-1.025c0-0.055-0.027-0.136-0.257-0.136
			c-0.418,0-0.837,0.055-1.255,0.055c-0.5,0-0.986-0.055-1.485-0.055c-0.108,0-0.216,0.027-0.216,0.148
			c0,0.297,1.161,0.027,1.174,1.013V38.17z"/>
	</g>
</g>
<g id="Layer_2" display="none">
</g>
</svg>
